<svg width="108" height="79" viewBox="0 0 108 79" fill="none" xmlns="http://www.w3.org/2000/svg">
<g opacity="0.7">
<path d="M19.6276 23.9649L29.8285 15.4094" stroke="#362222" stroke-width="2"/>
<path d="M39.1423 23.9649L49.3431 15.4094" stroke="#362222" stroke-width="2"/>
<path d="M1 23.9649L11.2008 15.4094" stroke="#362222" stroke-width="2"/>
<path d="M78.1716 23.9649L88.3724 15.4094" stroke="#362222" stroke-width="2"/>
<path d="M96.7992 23.9649L107 15.4094" stroke="#362222" stroke-width="2"/>
<path d="M58.6569 23.9649L68.8578 15.4094" stroke="#362222" stroke-width="2"/>
<path d="M19.6276 78L29.8285 69.4444" stroke="#362222" stroke-width="2"/>
<path d="M39.1423 78L49.3431 69.4444" stroke="#362222" stroke-width="2"/>
<path d="M1 78L11.2008 69.4444" stroke="#362222" stroke-width="2"/>
<path d="M78.1716 78L88.3724 69.4444" stroke="#362222" stroke-width="2"/>
<path d="M96.7992 78L107 69.4444" stroke="#362222" stroke-width="2"/>
<path d="M58.6569 78L68.8578 69.4444" stroke="#362222" stroke-width="2"/>
<path d="M19.6276 64.4912L29.8285 55.9357" stroke="#362222" stroke-width="2"/>
<path d="M39.1423 64.4912L49.3431 55.9357" stroke="#362222" stroke-width="2"/>
<path d="M1 64.4912L11.2008 55.9357" stroke="#362222" stroke-width="2"/>
<path d="M78.1716 64.4912L88.3724 55.9357" stroke="#362222" stroke-width="2"/>
<path d="M96.7992 64.4912L107 55.9357" stroke="#362222" stroke-width="2"/>
<path d="M58.6569 64.4912L68.8578 55.9357" stroke="#362222" stroke-width="2"/>
<path d="M19.6276 51.883L29.8285 43.3275" stroke="#362222" stroke-width="2"/>
<path d="M39.1423 51.883L49.3431 43.3275" stroke="#362222" stroke-width="2"/>
<path d="M1 51.883L11.2008 43.3275" stroke="#362222" stroke-width="2"/>
<path d="M78.1716 51.883L88.3724 43.3275" stroke="#362222" stroke-width="2"/>
<path d="M96.7992 51.883L107 43.3275" stroke="#362222" stroke-width="2"/>
<path d="M58.6569 51.883L68.8578 43.3275" stroke="#362222" stroke-width="2"/>
<path d="M19.6276 9.55556L29.8285 1" stroke="#362222" stroke-width="2"/>
<path d="M39.1423 9.55556L49.3431 1" stroke="#362222" stroke-width="2"/>
<path d="M1 9.55556L11.2008 1" stroke="#362222" stroke-width="2"/>
<path d="M78.1716 9.55556L88.3724 1" stroke="#362222" stroke-width="2"/>
<path d="M96.7992 9.55556L107 1" stroke="#362222" stroke-width="2"/>
<path d="M58.6569 9.55556L68.8578 1" stroke="#362222" stroke-width="2"/>
<path d="M19.6276 37.4737L29.8285 28.9181" stroke="#362222" stroke-width="2"/>
<path d="M39.1423 37.4737L49.3431 28.9181" stroke="#362222" stroke-width="2"/>
<path d="M1 37.4737L11.2008 28.9181" stroke="#362222" stroke-width="2"/>
<path d="M78.1716 37.4737L88.3724 28.9181" stroke="#362222" stroke-width="2"/>
<path d="M96.7992 37.4737L107 28.9181" stroke="#362222" stroke-width="2"/>
<path d="M58.6569 37.4737L68.8578 28.9181" stroke="#362222" stroke-width="2"/>
</g>
</svg>
